<mxfile host="app.diagrams.net" modified="2024-07-16T08:25:24.189Z" agent="Mozilla/5.0 (Macintosh; Intel Mac OS X 10_15_7) AppleWebKit/537.36 (KHTML, like Gecko) Chrome/124.0.0.0 Safari/537.36" version="24.6.4" etag="zhy5rXJ47hcSGHgRK3NX" type="github">
  <diagram name="Strona-1" id="BmituQq4DgnO3gFVsCUU">
    <mxGraphModel>
      <root>
        <mxCell id="0" />
        <mxCell id="1" parent="0" />
      </root>
    </mxGraphModel>
  </diagram>
</mxfile>
